<?xml version="1.0" encoding="UTF-8"?>
<svg width="60px" height="60px" viewBox="0 0 60 60" version="1.1" xmlns="http://www.w3.org/2000/svg" xmlns:xlink="http://www.w3.org/1999/xlink">
    <!-- Generator: Sketch 46.2 (44496) - http://www.bohemiancoding.com/sketch -->
    <title>icon/edit2</title>
    <desc>Created with Sketch.</desc>
    <defs></defs>
    <g id="Symbols" stroke="none" stroke-width="1" fill="none" fill-rule="evenodd">
        <g id="icon/edit2" fill-rule="nonzero" fill="#000000">
            <g id="编辑-(1)" transform="translate(11.000000, 10.000000)">
                <path d="M29.4599761,0.138347504 C29.4507496,0.138347504 29.4400923,0.138347504 29.4290896,0.138347504 C27.150747,0.138347504 25.0615221,0.949190187 23.4347548,2.29793033 L21.4526949,0.2653963 C21.2836583,0.10213243 21.0532436,0.00192423419 20.799294,0.00192423419 C20.5453444,0.00192423419 20.3148804,0.102231109 20.1455478,0.265692336 L9.22487737,11.1777777 C9.05727164,11.3447914 8.95360969,11.5760942 8.95360969,11.8311786 C8.95360969,12.0862629 9.05737032,12.3176151 9.22487737,12.4845794 C9.39218706,12.6476953 9.62126961,12.7479528 9.87324561,12.7479528 C10.1255176,12.7479528 10.3543042,12.6476459 10.5219099,12.4844807 L20.7884394,2.21612571 L22.1350579,3.55248168 L3.81259867,21.8473109 C2.27187916,23.3976516 1.26723156,25.4813012 1.09913244,27.7975364 C1.10238883,27.580246 1.06553235,28.0591336 1.06553235,28.5464089 C1.06553235,29.7792509 1.30344663,30.9562902 1.73634999,32.0343054 L1.14753433,32.4981938 L1.16657931,32.5172388 L1.14753433,32.5172388 C-0.101046964,33.7811153 -0.217833178,35.3241044 0.319422875,36.5949871 C1.34400357,38.9902639 4.491804,39.9116267 6.53080149,37.8935491 L6.53080149,37.8677446 L7.06810688,37.333745 C8.104381,37.744347 9.30520181,37.9821132 10.5616774,37.9821132 C11.0279835,37.9821132 11.4874314,37.9494013 11.9361727,37.8859015 C14.2086933,37.5292274 16.2137946,36.3742922 17.6568716,34.7170332 L36.128977,16.2598282 C37.8456406,14.5578677 38.9082619,12.1988553 38.9082619,9.59171535 C38.9082619,9.58697877 38.9082619,9.58219286 38.9082619,9.57755496 C38.903476,4.3638671 34.6759335,0.138840897 29.4613576,0.138199486 L29.4599761,0.138347504 Z M11.437352,34.8650019 C11.1560191,34.9084698 10.8312675,34.9333369 10.5008913,34.9333369 C9.3908549,34.9333369 8.34604508,34.6529907 7.43390873,34.1594 C7.25643514,34.0609187 7.00455781,33.9930277 6.73703992,33.9930277 C6.29071627,33.9930277 5.88874868,34.1817507 5.60559022,34.4838555 L4.37694202,35.7383575 C3.67415249,36.4219047 2.62046159,35.3560763 3.31279118,34.6721344 L4.59220956,33.3943936 C4.87314775,33.1096562 5.04657552,32.7181486 5.04657552,32.2861333 C5.04657552,31.9955246 4.96817531,31.7231222 4.83106129,31.4894511 C4.37210677,30.6414065 4.0998523,29.623684 4.0998523,28.5428071 C4.0998523,28.2069542 4.12585413,27.8776141 4.17652563,27.555823 C4.32696127,26.5564547 4.72813943,25.5804732 5.37221515,24.7054894 L14.335298,33.6773053 C13.3584284,34.3903574 12.1534631,34.8478318 10.8471055,34.9299818 L11.437352,34.8650019 Z M15.6580856,32.414613 L6.62972686,23.3669625 L18.3117526,11.6760063 L27.3506207,20.7253344 L15.6579376,32.414465 L15.6580856,32.414613 Z M28.6385748,19.4374296 L19.6083411,10.3796646 L21.7919522,8.18549487 L30.8618547,17.2348229 L28.6388215,19.4372816 L28.6385748,19.4374296 Z M33.9922383,14.0957062 L32.1601207,15.9278238 L23.0902182,6.88713019 L24.9223358,5.07361348 L24.9912135,4.99447318 C26.1424976,3.87274333 27.7177547,3.18095647 29.4540553,3.18095647 C29.4559796,3.18095647 29.4581998,3.18095647 29.459828,3.18095647 C29.4656007,3.18095647 29.473051,3.18095647 29.4805506,3.18095647 C32.995337,3.18095647 35.8450785,6.03054994 35.8450785,9.54548439 C35.8450785,9.55638838 35.8450785,9.56758841 35.8450785,9.57819637 C35.8450785,11.2262289 35.2286328,12.8746069 33.992041,14.0951634 L33.9922383,14.0957062 Z" id="Shape"></path>
            </g>
        </g>
    </g>
</svg>