<?xml version="1.0" encoding="UTF-8" standalone="no"?>
<!DOCTYPE svg PUBLIC "-//W3C//DTD SVG 1.1//EN" "http://www.w3.org/Graphics/SVG/1.1/DTD/svg11.dtd">
<svg width="100%" height="100%" viewBox="0 0 597 1500" version="1.1" xmlns="http://www.w3.org/2000/svg" xmlns:xlink="http://www.w3.org/1999/xlink" xml:space="preserve" xmlns:serif="http://www.serif.com/" style="fill-rule:evenodd;clip-rule:evenodd;stroke-linejoin:round;stroke-miterlimit:1.41421;">
    <g transform="matrix(1,0,0,1,-2834,-900)">
        <g transform="matrix(1,0,0,1,2188,748)">
            <circle cx="797.5" cy="300.5" r="148.5" style="fill:rgb(0,119,146);"/>
        </g>
        <g transform="matrix(1,0,0,1,2485,748)">
            <circle cx="797.5" cy="300.5" r="148.5" style="fill:white;"/>
        </g>
        <g transform="matrix(0.865027,0,0,0.865027,2897,957.385)">
            <path d="M125,25C135.158,25 144.869,26.985 154.131,30.956C163.394,34.927 171.369,40.254 178.056,46.938C184.744,53.621 190.071,61.596 194.038,70.863C198.004,80.129 199.99,89.84 199.994,99.994C199.998,110.148 198.012,119.858 194.038,129.125C190.063,138.392 184.735,146.367 178.056,153.05C171.377,159.733 163.402,165.06 154.131,169.031C144.86,173.002 135.15,174.987 125,174.987L50,174.987C40.929,174.987 32.563,172.752 24.9,168.281C17.238,163.81 11.173,157.746 6.706,150.087C2.24,142.429 0.004,134.062 0,124.987C-0.004,115.912 2.231,107.546 6.706,99.887C11.181,92.229 17.246,86.165 24.9,81.694C32.554,77.223 40.921,74.987 50,74.987L54.3,74.987C57.729,65.308 62.894,56.704 69.794,49.175C76.694,41.646 84.952,35.731 94.569,31.431C104.185,27.131 114.331,24.983 125.006,24.987L125,25Z" style="fill:white;fill-rule:nonzero;"/>
        </g>
        <g transform="matrix(0.865027,0,0,0.865027,3194,957.385)">
            <path d="M125,25C135.158,25 144.869,26.985 154.131,30.956C163.394,34.927 171.369,40.254 178.056,46.938C184.744,53.621 190.071,61.596 194.038,70.863C198.004,80.129 199.99,89.84 199.994,99.994C199.998,110.148 198.012,119.858 194.038,129.125C190.063,138.392 184.735,146.367 178.056,153.05C171.377,159.733 163.402,165.06 154.131,169.031C144.86,173.002 135.15,174.987 125,174.987L50,174.987C40.929,174.987 32.563,172.752 24.9,168.281C17.238,163.81 11.173,157.746 6.706,150.087C2.24,142.429 0.004,134.062 0,124.987C-0.004,115.912 2.231,107.546 6.706,99.887C11.181,92.229 17.246,86.165 24.9,81.694C32.554,77.223 40.921,74.987 50,74.987L54.3,74.987C57.729,65.308 62.894,56.704 69.794,49.175C76.694,41.646 84.952,35.731 94.569,31.431C104.185,27.131 114.331,24.983 125.006,24.987L125,25Z" style="fill:rgb(0,119,146);fill-rule:nonzero;"/>
        </g>
        <g transform="matrix(1,0,0,1,2185,1648)">
            <circle cx="797.5" cy="300.5" r="148.5" style="fill:rgb(255,140,0);"/>
        </g>
        <g transform="matrix(1,0,0,1,2485,1648)">
            <circle cx="797.5" cy="300.5" r="148.5" style="fill:white;"/>
        </g>
        <g transform="matrix(1,0,0,1,2188,1048)">
            <circle cx="797.5" cy="300.5" r="148.5" style="fill:rgb(0,148,49);"/>
        </g>
        <g transform="matrix(1,0,0,1,2485,1048)">
            <circle cx="797.5" cy="300.5" r="148.5" style="fill:white;"/>
        </g>
        <g transform="matrix(1,0,0,1,2188,1351)">
            <circle cx="797.5" cy="300.5" r="148.5" style="fill:rgb(130,174,193);"/>
        </g>
        <g transform="matrix(1,0,0,1,2485,1351)">
            <circle cx="797.5" cy="300.5" r="148.5" style="fill:white;"/>
        </g>
        <g transform="matrix(1,0,0,1,2185,1951)">
            <circle cx="797.5" cy="300.5" r="148.5" style="fill:rgb(160,21,68);"/>
        </g>
        <g transform="matrix(1,0,0,1,2485,1948)">
            <circle cx="797.5" cy="300.5" r="148.5" style="fill:white;"/>
        </g>
        <g transform="matrix(0.681114,0,0,0.681114,2909.72,2182.6)">
            <path d="M199.564,45.974L199.564,50.961C199.564,51.86 199.564,53.822 199.073,55.294C198.07,61.08 195.99,66.626 192.942,71.645C190.883,75.064 188.351,78.174 185.42,80.883C184.03,82.11 182.722,83.336 181.251,84.48C177.923,86.796 174.292,88.639 170.459,89.958C168.076,90.929 165.614,91.695 163.101,92.247C160.687,92.807 158.221,93.108 155.743,93.146L148.712,93.146C147.232,93.112 145.805,93.706 144.788,94.782L124.349,115.384L49.462,190.68L47.254,192.806C45.386,194.498 43.295,195.928 41.041,197.057C38.487,198.393 35.721,199.278 32.866,199.673L23.218,199.673C20.358,199.163 17.597,198.197 15.043,196.812C11.883,195.028 9.104,192.638 6.867,189.781C4.658,186.982 2.994,183.792 1.962,180.379C1.092,177.577 0.732,174.642 0.899,171.713C0.988,170.23 1.179,168.755 1.472,167.298C2.061,164.565 3.082,161.943 4.497,159.531C5.718,157.298 7.23,155.236 8.993,153.4L104.81,57.256L105.3,57.256C106.437,56.056 106.952,54.392 106.69,52.76C106.69,50.797 106.69,48.917 106.2,46.955C106.1,45.54 106.1,44.119 106.2,42.704C106.391,40.645 106.691,38.599 107.099,36.572C108.103,32.362 109.7,28.316 111.841,24.554C113.825,20.954 116.271,17.628 119.117,14.662C120.484,13.216 121.96,11.876 123.532,10.656C125.412,9.184 127.456,7.958 129.418,6.65C131.819,5.133 134.401,3.925 137.103,3.053C139.352,2.288 141.645,1.66 143.97,1.172C146.314,0.638 148.69,0.256 151.083,0.028C153.821,-0.077 156.562,0.115 159.259,0.6C160.75,0.762 162.152,1.392 163.264,2.399C164.995,4.068 165.517,6.646 164.573,8.857C163.847,10.592 162.76,12.153 161.384,13.435L153.617,21.611L145.442,29.786C144.186,30.977 143.087,32.323 142.172,33.792C140.807,35.955 140.365,38.578 140.945,41.069C141.53,43.373 142.748,45.469 144.461,47.118C147.895,50.634 151.41,53.986 154.926,57.501C156.061,58.629 157.39,59.543 158.85,60.199C160.456,60.947 162.249,61.203 164,60.935C166.407,60.395 168.583,59.107 170.214,57.256L180.27,47.037L188.445,38.861C189.864,37.405 191.926,36.759 193.923,37.144C196.291,37.422 198.218,39.217 198.664,41.559C198.729,42.812 198.729,44.067 198.664,45.32L198.664,45.974M27.47,159.613C27.361,159.611 27.252,159.609 27.143,159.609C19.384,159.609 12.999,165.994 12.999,173.753C12.999,181.512 19.384,187.897 27.143,187.897C34.87,187.897 41.24,181.565 41.286,173.838C41.286,173.811 41.286,173.784 41.286,173.756C41.286,165.983 34.916,159.576 27.143,159.531" style="fill:white;fill-rule:nonzero;"/>
            <path d="M25.835,0.028L28.205,0.518C29.537,0.881 30.847,1.318 32.13,1.826C35.003,3.092 37.589,4.928 39.733,7.222L43.739,11.065L47.663,14.825L57.637,25.126L65.813,33.302L71.127,38.698L76.114,43.848L81.591,49.081L88.132,55.703L90.339,58.074L82.818,65.432L80.283,62.652L70.391,52.76L31.557,13.844C30.696,12.834 29.602,12.048 28.369,11.555C26.785,11.305 25.262,12.356 24.935,13.926C24.773,15.297 25.33,16.659 26.407,17.523L31.884,23.001L74.479,65.432L78.812,69.601L69.819,78.594L69.001,77.531L68.102,76.387L30.822,39.106L18.313,26.516C17.675,25.76 16.931,25.1 16.106,24.554C15.674,24.329 15.194,24.211 14.707,24.211C13.134,24.211 11.81,25.438 11.691,27.007C11.67,27.869 11.961,28.711 12.509,29.378C12.83,29.788 13.186,30.171 13.571,30.522L63.932,81.21C64.586,81.864 65.322,82.437 66.058,83.009L61.234,87.669L58.455,89.958C58.455,89.958 57.637,90.367 57.637,89.958L53.386,85.788L7.44,39.924C3.905,36.416 1.462,31.956 0.409,27.088L0.409,20.712L0.409,19.894C0.75,17.987 1.298,16.123 2.044,14.335C3.165,12.081 4.626,10.012 6.377,8.203C7.971,6.22 9.876,4.508 12.018,3.134C14.22,1.693 16.654,0.642 19.212,0.028L25.916,0.028M121.161,132.307L132.279,121.188L132.77,121.188L137.266,125.603L154.844,143.18L160.24,148.658C161.288,149.83 162.607,150.728 164.082,151.274C164.881,151.519 165.703,151.683 166.535,151.765C168.842,152.048 171.068,152.799 173.075,153.972C174.961,155.07 176.648,156.48 178.062,158.142C179.089,159.366 180.045,160.649 180.924,161.984C183.131,165.254 185.42,168.524 187.546,171.795C189.671,175.065 192.287,179.316 194.577,182.995C195.476,184.467 196.457,185.938 197.275,187.492C198.702,189.612 198.702,192.402 197.275,194.522C196.18,195.977 194.71,197.108 193.023,197.793C192.039,198.106 190.982,198.106 189.998,197.793C188.132,197.198 186.348,196.374 184.684,195.34L180.76,193.133L175.037,189.699C172.912,188.309 170.786,186.919 168.66,185.448C166.535,183.976 164.409,182.341 162.365,180.706C160.321,179.071 158.85,177.926 157.296,176.373C154.643,173.761 152.798,170.44 151.982,166.808C151.982,165.663 151.492,164.518 151.165,163.374C150.802,162.247 150.154,161.233 149.284,160.431L121.406,132.47L120.915,132.062" style="fill:white;fill-rule:nonzero;"/>
        </g>
        <g transform="matrix(0.681114,0,0,0.681114,3209.72,2179.6)">
            <path d="M199.564,45.974L199.564,50.961C199.564,51.86 199.564,53.822 199.073,55.294C198.07,61.08 195.99,66.626 192.942,71.645C190.883,75.064 188.351,78.174 185.42,80.883C184.03,82.11 182.722,83.336 181.251,84.48C177.923,86.796 174.292,88.639 170.459,89.958C168.076,90.929 165.614,91.695 163.101,92.247C160.687,92.807 158.221,93.108 155.743,93.146L148.712,93.146C147.232,93.112 145.805,93.706 144.788,94.782L124.349,115.384L49.462,190.68L47.254,192.806C45.386,194.498 43.295,195.928 41.041,197.057C38.487,198.393 35.721,199.278 32.866,199.673L23.218,199.673C20.358,199.163 17.597,198.197 15.043,196.812C11.883,195.028 9.104,192.638 6.867,189.781C4.658,186.982 2.994,183.792 1.962,180.379C1.092,177.577 0.732,174.642 0.899,171.713C0.988,170.23 1.179,168.755 1.472,167.298C2.061,164.565 3.082,161.943 4.497,159.531C5.718,157.298 7.23,155.236 8.993,153.4L104.81,57.256L105.3,57.256C106.437,56.056 106.952,54.392 106.69,52.76C106.69,50.797 106.69,48.917 106.2,46.955C106.1,45.54 106.1,44.119 106.2,42.704C106.391,40.645 106.691,38.599 107.099,36.572C108.103,32.362 109.7,28.316 111.841,24.554C113.825,20.954 116.271,17.628 119.117,14.662C120.484,13.216 121.96,11.876 123.532,10.656C125.412,9.184 127.456,7.958 129.418,6.65C131.819,5.133 134.401,3.925 137.103,3.053C139.352,2.288 141.645,1.66 143.97,1.172C146.314,0.638 148.69,0.256 151.083,0.028C153.821,-0.077 156.562,0.115 159.259,0.6C160.75,0.762 162.152,1.392 163.264,2.399C164.995,4.068 165.517,6.646 164.573,8.857C163.847,10.592 162.76,12.153 161.384,13.435L153.617,21.611L145.442,29.786C144.186,30.977 143.087,32.323 142.172,33.792C140.807,35.955 140.365,38.578 140.945,41.069C141.53,43.373 142.748,45.469 144.461,47.118C147.895,50.634 151.41,53.986 154.926,57.501C156.061,58.629 157.39,59.543 158.85,60.199C160.456,60.947 162.249,61.203 164,60.935C166.407,60.395 168.583,59.107 170.214,57.256L180.27,47.037L188.445,38.861C189.864,37.405 191.926,36.759 193.923,37.144C196.291,37.422 198.218,39.217 198.664,41.559C198.729,42.812 198.729,44.067 198.664,45.32L198.664,45.974M27.47,159.613C27.361,159.611 27.252,159.609 27.143,159.609C19.384,159.609 12.999,165.994 12.999,173.753C12.999,181.512 19.384,187.897 27.143,187.897C34.87,187.897 41.24,181.565 41.286,173.838C41.286,173.811 41.286,173.784 41.286,173.756C41.286,165.983 34.916,159.576 27.143,159.531" style="fill:rgb(160,21,68);fill-rule:nonzero;"/>
            <path d="M25.835,0.028L28.205,0.518C29.537,0.881 30.847,1.318 32.13,1.826C35.003,3.092 37.589,4.928 39.733,7.222L43.739,11.065L47.663,14.825L57.637,25.126L65.813,33.302L71.127,38.698L76.114,43.848L81.591,49.081L88.132,55.703L90.339,58.074L82.818,65.432L80.283,62.652L70.391,52.76L31.557,13.844C30.696,12.834 29.602,12.048 28.369,11.555C26.785,11.305 25.262,12.356 24.935,13.926C24.773,15.297 25.33,16.659 26.407,17.523L31.884,23.001L74.479,65.432L78.812,69.601L69.819,78.594L69.001,77.531L68.102,76.387L30.822,39.106L18.313,26.516C17.675,25.76 16.931,25.1 16.106,24.554C15.674,24.329 15.194,24.211 14.707,24.211C13.134,24.211 11.81,25.438 11.691,27.007C11.67,27.869 11.961,28.711 12.509,29.378C12.83,29.788 13.186,30.171 13.571,30.522L63.932,81.21C64.586,81.864 65.322,82.437 66.058,83.009L61.234,87.669L58.455,89.958C58.455,89.958 57.637,90.367 57.637,89.958L53.386,85.788L7.44,39.924C3.905,36.416 1.462,31.956 0.409,27.088L0.409,20.712L0.409,19.894C0.75,17.987 1.298,16.123 2.044,14.335C3.165,12.081 4.626,10.012 6.377,8.203C7.971,6.22 9.876,4.508 12.018,3.134C14.22,1.693 16.654,0.642 19.212,0.028L25.916,0.028M121.161,132.307L132.279,121.188L132.77,121.188L137.266,125.603L154.844,143.18L160.24,148.658C161.288,149.83 162.607,150.728 164.082,151.274C164.881,151.519 165.703,151.683 166.535,151.765C168.842,152.048 171.068,152.799 173.075,153.972C174.961,155.07 176.648,156.48 178.062,158.142C179.089,159.366 180.045,160.649 180.924,161.984C183.131,165.254 185.42,168.524 187.546,171.795C189.671,175.065 192.287,179.316 194.577,182.995C195.476,184.467 196.457,185.938 197.275,187.492C198.702,189.612 198.702,192.402 197.275,194.522C196.18,195.977 194.71,197.108 193.023,197.793C192.039,198.106 190.982,198.106 189.998,197.793C188.132,197.198 186.348,196.374 184.684,195.34L180.76,193.133L175.037,189.699C172.912,188.309 170.786,186.919 168.66,185.448C166.535,183.976 164.409,182.341 162.365,180.706C160.321,179.071 158.85,177.926 157.296,176.373C154.643,173.761 152.798,170.44 151.982,166.808C151.982,165.663 151.492,164.518 151.165,163.374C150.802,162.247 150.154,161.233 149.284,160.431L121.406,132.47L120.915,132.062" style="fill:rgb(160,21,68);fill-rule:nonzero;"/>
        </g>
        <g transform="matrix(0.78014,0,0,0.77181,2911.13,1275.77)">
            <path d="M28.906,12.48L169.336,12.48C174.771,12.486 179.18,16.878 179.18,22.305L179.18,140.117C179.18,145.547 174.766,149.961 169.336,149.961L131.992,149.961L148.086,178.281C149.746,181.191 148.711,184.922 145.801,186.582C142.891,188.242 139.16,187.207 137.5,184.297L117.988,149.98L80.566,149.98L60.723,184.355C59.043,187.246 55.293,188.262 52.402,186.582C49.512,184.902 48.496,181.152 50.176,178.262L66.504,149.98L28.906,149.98C23.471,149.975 19.063,145.563 19.063,140.137L19.063,22.324C19.063,16.898 23.471,12.486 28.906,12.48ZM144.115,92.156C147.727,92.565 148.384,94.089 149.079,95.525C150.856,99.194 147.969,103.967 143.402,104.147C139.739,104.347 136.495,106.462 132.346,106.935C128.175,107.411 123.96,107.339 119.774,107.856C118.351,108.018 118.225,108.013 117.536,108.058C112.148,108.409 106.743,107.899 101.339,107.865C86.744,107.834 72.057,106.579 57.817,107.779C51.734,108.291 44.085,112.36 40.824,106.799C38.682,103.146 41.642,97.91 46.266,97.759C50.651,97.561 54.654,95.802 59.719,95.663C63.561,95.559 67.419,95.83 71.236,95.864C84.221,95.904 97.196,95.753 110.179,96.136C119.405,96.375 128.866,96.025 137.417,93.213C139.58,92.517 141.815,92.081 144.115,92.156ZM59.012,44.368C61.501,44.502 63.688,46.158 64.577,48.509C65.66,51.37 64.929,54.547 64.905,57.422C64.846,62.616 64.586,67.805 64.577,73.003C64.577,73.003 62.601,80.013 57.296,78.854C51.133,77.507 52.732,66.947 52.883,58.885C52.907,57.467 52.918,55.462 52.918,55.462C53.102,51.361 53.136,52.329 53.136,52.329C53.136,52.329 52.549,44.269 59.012,44.368ZM124.987,41.001C128.453,41.061 131.817,42.375 135.257,42.461C135.257,42.461 139.397,43.286 140.57,46.245C141.47,48.517 140.816,51.256 138.957,52.958C138.957,52.958 139.71,55.569 139.676,58.025C139.51,69.986 123.477,81.067 113.265,72.318C108.367,68.122 108.711,60.052 110.4,53.938C112.163,47.556 116.699,41.161 124.476,41.002C124.647,41 124.817,41 124.987,41.001ZM124.276,53.024C123.062,53.175 122.782,54.746 122.278,56.147C121.486,58.353 121.21,60.74 121.411,63.078C121.411,63.078 121.867,63.153 122.174,63.151C125.526,63.124 128.639,59.54 127.414,56.276C126.999,55.22 125.222,54.584 124.286,53.023C124.283,53.023 124.279,53.023 124.276,53.024Z" style="fill:white;"/>
        </g>
        <g transform="matrix(0.78014,0,0,0.77181,3208.13,1275.77)">
            <path d="M28.906,12.48L169.336,12.48C174.771,12.486 179.18,16.878 179.18,22.305L179.18,140.117C179.18,145.547 174.766,149.961 169.336,149.961L131.992,149.961L148.086,178.281C149.746,181.191 148.711,184.922 145.801,186.582C142.891,188.242 139.16,187.207 137.5,184.297L117.988,149.98L80.566,149.98L60.723,184.355C59.043,187.246 55.293,188.262 52.402,186.582C49.512,184.902 48.496,181.152 50.176,178.262L66.504,149.98L28.906,149.98C23.471,149.975 19.063,145.563 19.063,140.137L19.063,22.324C19.063,16.898 23.471,12.486 28.906,12.48ZM144.115,92.156C147.727,92.565 148.384,94.089 149.079,95.525C150.856,99.194 147.969,103.967 143.402,104.147C139.739,104.347 136.495,106.462 132.346,106.935C128.175,107.411 123.96,107.339 119.774,107.856C118.351,108.018 118.225,108.013 117.536,108.058C112.148,108.409 106.743,107.899 101.339,107.865C86.744,107.834 72.057,106.579 57.817,107.779C51.734,108.291 44.085,112.36 40.824,106.799C38.682,103.146 41.642,97.91 46.266,97.759C50.651,97.561 54.654,95.802 59.719,95.663C63.561,95.559 67.419,95.83 71.236,95.864C84.221,95.904 97.196,95.753 110.179,96.136C119.405,96.375 128.866,96.025 137.417,93.213C139.58,92.517 141.815,92.081 144.115,92.156ZM59.012,44.368C61.501,44.502 63.688,46.158 64.577,48.509C65.66,51.37 64.929,54.547 64.905,57.422C64.846,62.616 64.586,67.805 64.577,73.003C64.577,73.003 62.601,80.013 57.296,78.854C51.133,77.507 52.732,66.947 52.883,58.885C52.907,57.467 52.918,55.462 52.918,55.462C53.102,51.361 53.136,52.329 53.136,52.329C53.136,52.329 52.549,44.269 59.012,44.368ZM124.987,41.001C128.453,41.061 131.817,42.375 135.257,42.461C135.257,42.461 139.397,43.286 140.57,46.245C141.47,48.517 140.816,51.256 138.957,52.958C138.957,52.958 139.71,55.569 139.676,58.025C139.51,69.986 123.477,81.067 113.265,72.318C108.367,68.122 108.711,60.052 110.4,53.938C112.163,47.556 116.699,41.161 124.476,41.002C124.647,41 124.817,41 124.987,41.001ZM124.276,53.024C123.062,53.175 122.782,54.746 122.278,56.147C121.486,58.353 121.21,60.74 121.411,63.078C121.411,63.078 121.867,63.153 122.174,63.151C125.526,63.124 128.639,59.54 127.414,56.276C126.999,55.22 125.222,54.584 124.286,53.023C124.283,53.023 124.279,53.023 124.276,53.024Z" style="fill:rgb(0,148,49);"/>
        </g>
        <g transform="matrix(2.44452,0,0,3.8685,924.061,1183.01)">
            <g transform="matrix(0.362592,0,0,0.230592,807.236,98)">
                <path d="M100,12C51.725,12 12,51.725 12,100C12,148.275 51.725,188 100,188C148.275,188 188,148.275 188,100C188,51.725 148.275,12 100,12ZM147.24,53.88L109.88,109.88L53.88,147.24C53.742,147.344 53.573,147.4 53.4,147.4C52.961,147.4 52.6,147.039 52.6,146.6C52.6,146.427 52.656,146.258 52.76,146.12L90.12,90.12L146.12,52.76C146.258,52.656 146.427,52.6 146.6,52.6C147.039,52.6 147.4,52.961 147.4,53.4C147.4,53.573 147.344,53.742 147.24,53.88Z" style="fill:white;fill-rule:nonzero;"/>
            </g>
            <g transform="matrix(0.362592,0,0,0.230592,807.236,98)">
                <path d="M92,100C92,104.389 95.611,108 100,108C104.389,108 108,104.389 108,100C108,95.611 104.389,92 100,92C95.611,92 92,95.611 92,100Z" style="fill:rgb(130,174,193);fill-rule:nonzero;"/>
            </g>
        </g>
        <g transform="matrix(2.44452,0,0,3.8685,1221.06,1183.01)">
            <g transform="matrix(0.362592,0,0,0.230592,807.236,98)">
                <path d="M100,12C51.725,12 12,51.725 12,100C12,148.275 51.725,188 100,188C148.275,188 188,148.275 188,100C188,51.725 148.275,12 100,12ZM147.24,53.88L109.88,109.88L53.88,147.24C53.742,147.344 53.573,147.4 53.4,147.4C52.961,147.4 52.6,147.039 52.6,146.6C52.6,146.427 52.656,146.258 52.76,146.12L90.12,90.12L146.12,52.76C146.258,52.656 146.427,52.6 146.6,52.6C147.039,52.6 147.4,52.961 147.4,53.4C147.4,53.573 147.344,53.742 147.24,53.88Z" style="fill:rgb(130,174,193);fill-rule:nonzero;"/>
            </g>
            <g transform="matrix(0.362592,0,0,0.230592,807.236,98)">
                <path d="M92,100C92,104.389 95.611,108 100,108C104.389,108 108,104.389 108,100C108,95.611 104.389,92 100,92C95.611,92 92,95.611 92,100Z" style="fill:rgb(130,174,193);fill-rule:nonzero;"/>
            </g>
        </g>
        <g transform="matrix(0.912427,0,0,0.912427,2891.25,1857.26)">
            <path d="M18.359,151.035C18.359,162.598 27.207,171.445 38.77,171.445L161.25,171.445C172.813,171.445 181.66,162.598 181.66,151.035L181.66,76.191L18.359,76.191L18.359,151.035ZM132.656,106.797C130.605,104.746 129.941,102.031 131.973,100C134.023,97.949 136.738,97.285 138.77,99.316L159.18,116.328C160.547,117.012 161.23,118.379 161.23,119.727C161.23,121.074 160.547,122.441 159.863,123.809L139.473,143.555C138.789,144.238 137.422,144.922 136.074,144.922C134.707,144.922 133.359,144.238 132.676,143.555C130.625,141.504 130.625,138.105 132.676,136.758L149.004,121.113L132.656,106.797ZM85.039,136.738L105.449,100C106.816,97.285 109.531,96.602 112.246,97.949C114.961,99.316 115.645,102.031 114.297,104.746L93.867,141.504C93.184,142.871 91.152,144.219 89.785,144.219C89.102,144.219 87.734,144.219 87.07,143.535C85.039,142.188 83.672,139.473 85.039,136.738ZM40.801,115.645L61.211,98.633C63.262,96.582 66.66,97.266 68.008,99.316C70.059,101.367 69.375,104.766 67.324,106.113L51.016,119.727L67.344,135.371C69.395,137.422 69.395,140.137 67.344,142.168C66.66,142.852 65.293,143.535 63.945,143.535C62.578,143.535 61.23,142.852 60.547,142.168L40.117,122.461C39.434,121.777 38.75,120.41 38.75,118.379C38.77,117.695 39.453,117.012 40.801,115.645ZM161.23,28.555L38.77,28.555C27.187,28.555 18.359,37.402 18.359,48.965L18.359,69.375L181.641,69.375L181.641,48.965C181.641,37.402 172.813,28.555 161.23,28.555ZM52.363,55.781L38.75,55.781L38.75,42.168L52.363,42.168L52.363,55.781ZM79.59,55.781L65.977,55.781L65.977,42.168L79.59,42.168L79.59,55.781ZM106.797,55.781L93.184,55.781L93.184,42.168L106.797,42.168L106.797,55.781Z" style="fill:white;fill-rule:nonzero;"/>
        </g>
        <g transform="matrix(0.912427,0,0,0.912427,3191.25,1857.26)">
            <path d="M18.359,151.035C18.359,162.598 27.207,171.445 38.77,171.445L161.25,171.445C172.813,171.445 181.66,162.598 181.66,151.035L181.66,76.191L18.359,76.191L18.359,151.035ZM132.656,106.797C130.605,104.746 129.941,102.031 131.973,100C134.023,97.949 136.738,97.285 138.77,99.316L159.18,116.328C160.547,117.012 161.23,118.379 161.23,119.727C161.23,121.074 160.547,122.441 159.863,123.809L139.473,143.555C138.789,144.238 137.422,144.922 136.074,144.922C134.707,144.922 133.359,144.238 132.676,143.555C130.625,141.504 130.625,138.105 132.676,136.758L149.004,121.113L132.656,106.797ZM85.039,136.738L105.449,100C106.816,97.285 109.531,96.602 112.246,97.949C114.961,99.316 115.645,102.031 114.297,104.746L93.867,141.504C93.184,142.871 91.152,144.219 89.785,144.219C89.102,144.219 87.734,144.219 87.07,143.535C85.039,142.188 83.672,139.473 85.039,136.738ZM40.801,115.645L61.211,98.633C63.262,96.582 66.66,97.266 68.008,99.316C70.059,101.367 69.375,104.766 67.324,106.113L51.016,119.727L67.344,135.371C69.395,137.422 69.395,140.137 67.344,142.168C66.66,142.852 65.293,143.535 63.945,143.535C62.578,143.535 61.23,142.852 60.547,142.168L40.117,122.461C39.434,121.777 38.75,120.41 38.75,118.379C38.77,117.695 39.453,117.012 40.801,115.645ZM161.23,28.555L38.77,28.555C27.187,28.555 18.359,37.402 18.359,48.965L18.359,69.375L181.641,69.375L181.641,48.965C181.641,37.402 172.813,28.555 161.23,28.555ZM52.363,55.781L38.75,55.781L38.75,42.168L52.363,42.168L52.363,55.781ZM79.59,55.781L65.977,55.781L65.977,42.168L79.59,42.168L79.59,55.781ZM106.797,55.781L93.184,55.781L93.184,42.168L106.797,42.168L106.797,55.781Z" style="fill:rgb(255,140,0);fill-rule:nonzero;"/>
        </g>
    </g>
</svg>
