<?xml version="1.0" encoding="UTF-8"?>
<svg width="60px" height="60px" viewBox="0 0 60 60" version="1.1" xmlns="http://www.w3.org/2000/svg" xmlns:xlink="http://www.w3.org/1999/xlink">
    <!-- Generator: Sketch 47.1 (45422) - http://www.bohemiancoding.com/sketch -->
    <title>icon/flow</title>
    <desc>Created with Sketch.</desc>
    <defs>
        <linearGradient x1="43.9628359%" y1="9.50818844%" x2="13.5066508%" y2="100%" id="linearGradient-1">
            <stop stop-color="#17CAD0" offset="0%"></stop>
            <stop stop-color="#0572AE" offset="100%"></stop>
        </linearGradient>
    </defs>
    <g id="Symbols" stroke="none" stroke-width="1" fill="none" fill-rule="evenodd">
        <g id="icon/flow" fill-rule="nonzero" fill="url(#linearGradient-1)">
            <g id="流量分析" transform="translate(14.000000, 14.000000)">
                <path d="M16.4999418,33 C13.8667172,33 11.3495599,32.3978907 9.01849435,31.2101452 C6.79633643,30.0778725 4.82592914,28.4243421 3.32014003,26.4282544 C2.8680366,25.8290556 2.98736348,24.9766496 3.58667558,24.5246019 C4.18592944,24.0724379 5.03827277,24.1918236 5.49043443,24.7911389 C6.74918773,26.4598035 8.39601538,27.8417327 10.2527419,28.7879127 C12.1980033,29.7789715 14.2997866,30.2816024 16.5,30.2816024 C20.1810894,30.2816024 23.6420934,28.8480421 26.2450497,26.2450721 C28.8479477,23.6421021 30.2815004,20.1811962 30.2815004,16.5000291 C30.2815004,12.818862 28.8479477,9.35807252 26.2450497,6.75504429 C23.6420934,4.15207426 20.1810894,2.71851402 16.5,2.71851402 C12.8188524,2.71851402 9.35802301,4.15207426 6.75506675,6.75504429 C4.15205226,9.35801435 2.7184414,12.818862 2.7184414,16.4999709 C2.7184414,17.8353333 2.90884057,19.1550376 3.28410912,20.4220049 C3.49738412,21.1417537 3.08672497,21.8981156 2.36698003,22.11145 C1.64717689,22.3247261 0.890877169,21.9139483 0.677602173,21.1941414 C0.227943478,19.6763534 0,18.0969807 0,16.4999127 C0,14.2730281 0.436445417,12.112152 1.2971707,10.0770064 C2.12832624,8.1121185 3.3177535,6.34764264 4.83268128,4.83264865 C6.34760906,3.31771285 8.11201734,2.1282793 10.0770695,1.2971776 C12.1121461,0.436389524 14.273069,0 16.5,0 C18.726931,0 20.8879121,0.436447726 22.9229305,1.2971776 C24.8879826,2.1283375 26.6522745,3.31771285 28.1674351,4.83264865 C29.6821883,6.34758444 30.8716738,8.11200206 31.7028875,10.0770646 C32.5635546,12.1120938 33,14.2730863 33,16.4999709 C33,18.7269137 32.5635546,20.8879062 31.7028875,22.9229936 C30.8716737,24.8879397 29.6821883,26.6523573 28.1674351,28.1673514 C26.6525655,29.6822289 24.8880991,30.8718371 22.9229305,31.7029388 C20.8878539,32.5635522 18.7268146,33 16.4999418,33 Z" id="Shape"></path>
                <path d="M25.6026168,12.3767989 C25.0726363,11.8744004 24.2054593,11.8744004 23.6755955,12.3767989 L17.8343744,17.9170682 L13.5091669,13.816396 C13.2384293,13.5597202 12.8796437,13.4345355 12.5228419,13.4401226 C12.1660402,13.4345355 11.8072546,13.5597202 11.536517,13.816396 L7.39744158,17.7264975 C6.86751947,18.2288961 6.86751947,19.0509224 7.39744158,19.5533763 C7.92736368,20.0557749 8.79448236,20.0557749 9.32434612,19.5533763 L12.5210915,16.533453 L16.8352711,20.6235593 C17.1093346,20.8833329 17.4734882,21.0084624 17.8344911,20.9995562 C18.195669,21.0084624 18.5598227,20.8833329 18.8338278,20.6235593 L25.6025001,14.2038437 C26.1324805,13.7013345 26.1324805,12.8791975 25.6026168,12.3767989 L25.6026168,12.3767989 Z" id="Shape"></path>
            </g>
        </g>
    </g>
</svg>