<?xml version="1.0" encoding="UTF-8"?>
<svg width="60px" height="60px" viewBox="0 0 60 60" version="1.1" xmlns="http://www.w3.org/2000/svg" xmlns:xlink="http://www.w3.org/1999/xlink">
    <!-- Generator: Sketch 47.1 (45422) - http://www.bohemiancoding.com/sketch -->
    <title>icon/gene</title>
    <desc>Created with Sketch.</desc>
    <defs>
        <linearGradient x1="43.9628359%" y1="9.50818844%" x2="13.5066508%" y2="100%" id="linearGradient-1">
            <stop stop-color="#17CAD0" offset="0%"></stop>
            <stop stop-color="#0572AE" offset="100%"></stop>
        </linearGradient>
    </defs>
    <g id="Symbols" stroke="none" stroke-width="1" fill="none" fill-rule="evenodd">
        <g id="icon/gene" fill="url(#linearGradient-1)">
            <g id="基因" transform="translate(30.000000, 30.000000) rotate(-90.000000) translate(-30.000000, -30.000000) translate(15.000000, 6.000000)">
                <path d="M29.9982618,46.3919966 C29.8830321,35.4921287 26.4059278,28.2821699 18.7220718,24.0582644 C26.4059278,19.8100001 29.9020729,12.6243408 29.9020729,1.60321238 C29.9020729,0.704901241 29.4219726,0.000926861109 28.5383573,0.000926861109 C27.6546013,0.000926861109 27.1744541,0.68060173 27.1744541,1.60321238 C27.1744541,12.3814643 23.1787927,19.0573674 14.9570105,22.4802784 C6.83132344,18.911689 2.73975452,12.381405 2.73975452,1.60315314 C2.73975452,0.704842006 2.25941974,0.0008676267 1.37585132,0.0008676267 C0.49214225,0.000926861109 0.0119481211,0.680542496 0.0119481211,1.60315314 C0.0119481211,9.88110472 1.93295904,15.9499352 6.27440333,20.4167172 C7.73426091,21.9218046 9.40539642,22.892955 11.2879505,23.9368854 C3.60414145,28.1850904 0.107902546,35.3708682 0.0119481211,46.2706769 C0.0119481211,46.7317155 0.0504518047,47.1685732 0.261682843,47.4358085 C0.58828424,47.7756459 0.914744944,47.8969656 1.37585132,47.8969656 C2.25941974,47.8969656 2.73975452,47.2172314 2.73975452,46.2946209 C2.73975452,35.5164875 6.73527523,28.8404658 14.9570105,25.4175549 C23.0827445,28.986085 27.1744541,35.5164282 27.1744541,46.2946209 C27.1744541,46.7560743 27.2126764,47.192932 27.4241419,47.4600487 C27.7506026,47.7999454 28.0772509,47.9212651 28.5383573,47.9212651 C29.5179739,47.9939858 29.9212544,47.3385512 29.9982618,46.3919966" id="Shape" fill-rule="nonzero"></path>
                <path d="M7.90703514,43.4592829 C7.10023965,43.4592829 6.46635905,43.9587523 6.46635905,44.6310427 C6.46635905,44.9576441 6.67777765,45.2842924 6.86978025,45.4571135 C7.08115194,45.6107062 7.48457314,45.7837619 7.88799434,45.7837619 L22.0837588,45.6492568 C22.8905543,45.6492568 23.5246225,45.1498812 23.5246225,44.4775439 C23.5053003,43.804972 22.9097827,43.3249186 22.1029872,43.3249185 L7.90703514,43.4592829 Z" id="Shape" fill-rule="nonzero" opacity="0.400000006"></path>
                <path d="M21.4713228,34.4776377 C21.4713228,33.8245286 20.8565768,33.3249185 20.0497344,33.3249185 L9.90717583,33.4210606 C9.10038035,33.4210606 8.46635905,33.92053 8.46635905,34.5928674 C8.46635905,34.9194688 8.67773074,35.2458825 8.86973334,35.4188912 C9.08115194,35.5724839 9.48457314,35.7455396 9.88794743,35.7455396 L20.0306936,35.6493507 C20.7605755,35.7263111 21.4713228,35.1499282 21.4713228,34.4776377" id="Path" opacity="0.600000024"></path>
                <path d="M8.46635905,12.5929143 C8.46635905,12.919375 8.67777765,13.2459295 8.86973337,13.4188912 C9.08115198,13.5723902 9.48457318,13.745352 9.88794747,13.745352 L20.0305061,13.6493507 C20.8373016,13.6493507 21.4714167,13.1499751 21.4714166,12.4776846 C21.4714166,11.8053471 20.8565768,11.3249186 20.0497813,11.3249185 L9.90722274,11.4209198 C9.19638164,11.3442407 8.48558745,11.9397583 8.46635905,12.5929143" id="Path" opacity="0.699999988"></path>
                <path d="M6.86978025,4.45739493 C7.15792483,4.70703583 7.48457314,4.78385564 7.88799434,4.78385564 L22.0837588,4.64930375 C22.8905543,4.64930375 23.5246225,4.14997503 23.5246225,3.47763765 C23.5246225,2.82448177 22.9098296,2.32491854 22.1029872,2.32491854 L7.90703514,2.45942356 C7.10023965,2.45942356 6.46635905,2.95898675 6.46635905,3.63127726 C6.46635905,3.97701324 6.56236035,4.22674796 6.86978025,4.45739493" id="Path" opacity="0.800000012"></path>
            </g>
        </g>
    </g>
</svg>