<?xml version="1.0" encoding="UTF-8"?>
<svg width="60px" height="60px" viewBox="0 0 60 60" version="1.1" xmlns="http://www.w3.org/2000/svg" xmlns:xlink="http://www.w3.org/1999/xlink">
    <!-- Generator: Sketch 47.1 (45422) - http://www.bohemiancoding.com/sketch -->
    <title>icon/route</title>
    <desc>Created with Sketch.</desc>
    <defs>
        <linearGradient x1="43.9628359%" y1="9.50818844%" x2="13.5066508%" y2="100%" id="linearGradient-1">
            <stop stop-color="#17CAD0" offset="0%"></stop>
            <stop stop-color="#0572AE" offset="100%"></stop>
        </linearGradient>
    </defs>
    <g id="Symbols" stroke="none" stroke-width="1" fill="none" fill-rule="evenodd">
        <g id="icon/route" fill-rule="nonzero" fill="url(#linearGradient-1)">
            <g id="路线" transform="translate(22.000000, 13.000000)">
                <path d="M21.535805,16.365995 C16.4096597,16.365995 11.8129277,18.6363632 8.66190097,22.2149929 L8.66190097,9.92649776 L11.965643,9.92649776 C12.83103,9.92649776 13.3451717,8.94911952 12.8463015,8.24153837 L7.39945406,0.458146034 C6.97185109,-0.152715345 6.0708305,-0.152715345 5.64322753,0.458146034 L0.196380048,8.24153837 C-0.302490081,8.94911947 0.206561084,9.92649776 1.07703856,9.92649776 L4.38078062,9.92649776 L4.38078062,33.5261098 L8.66699146,33.5261098 C8.66699146,26.4299366 14.4396317,20.6522058 21.5408955,20.6522058 C22.7269847,20.6522058 23.6840009,19.6900991 23.6840009,18.5091004 C23.6840009,17.3230112 22.7218942,16.365995 21.535805,16.365995 Z" id="Shape"></path>
            </g>
        </g>
    </g>
</svg>