<?xml version="1.0" encoding="UTF-8"?>
<svg width="60px" height="60px" viewBox="0 0 60 60" version="1.1" xmlns="http://www.w3.org/2000/svg" xmlns:xlink="http://www.w3.org/1999/xlink">
    <!-- Generator: Sketch 47.1 (45422) - http://www.bohemiancoding.com/sketch -->
    <title>icon/task-d</title>
    <desc>Created with Sketch.</desc>
    <defs></defs>
    <g id="Symbols" stroke="none" stroke-width="1" fill="none" fill-rule="evenodd">
        <g id="icon/task-d" fill-rule="nonzero" fill="#FFFFFF">
            <g id="文件" transform="translate(12.000000, 14.000000)">
                <path d="M33.9153549,3.45554166 L9.985324,3.45554166 C8.60813263,0.345614575 7.74721403,0 7.40290678,0 L2.06595635,0 C0.860805739,0 0,1.03665495 0,2.24611718 L0,30.7538828 C0,31.9633451 1.03295936,33 2.06595635,33 L33.9152044,33 C35.120355,33 35.9811607,31.9633451 35.9811607,30.7538828 L35.9811607,5.52888931 C36.1533144,4.49223436 35.120355,3.45554166 33.9152044,3.45554166 L33.9153549,3.45554166 Z M34.4317781,30.4083438 C34.4317781,30.7538451 34.0875085,31.0995351 33.7430508,31.0995351 L2.41022597,31.0995351 C2.06595635,31.0995351 1.72149862,30.7540338 1.72149862,30.4083438 L1.72149862,10.3665495 L34.4316276,10.3665495 L34.4316276,30.4083438 L34.4317781,30.4083438 Z M34.4317781,8.63877864 L1.7216491,8.63877864 L1.7216491,2.4188112 C1.7216491,2.07330989 2.06591873,1.72761981 2.41037646,1.72761981 L7.40294441,1.72761981 C7.74721403,1.90038934 8.43590377,3.45535288 8.95232702,4.66473961 C9.12448064,5.01024091 9.29659664,5.1830482 9.64105438,5.1830482 L33.7432389,5.1830482 C34.0875085,5.1830482 34.4319662,5.52854951 34.4319662,5.8742396 L34.4319662,8.63866537 L34.4317781,8.63877864 Z" id="Shape"></path>
            </g>
        </g>
    </g>
</svg>